<svg width="780" height="1024" viewBox="0 0 780 1024" fill="none" xmlns="http://www.w3.org/2000/svg">
<path d="M748.165 222.402C741.097 234.442 723.33 257.725 715.518 252.873C707.707 248.021 716.316 213.799 723.384 201.759C730.451 189.719 742.513 183.892 750.325 188.744C758.136 193.596 755.233 210.362 748.165 222.402Z" fill="#B8CCCD"/>
<path d="M756.637 446.897C749.569 458.937 736.263 458.748 728.452 453.896C707.07 398.908 721.176 393.758 728.243 381.718C735.311 369.678 747.373 363.851 755.184 368.703C762.996 373.555 763.705 434.857 756.637 446.897Z" fill="#B8CCCD"/>
<path d="M756.637 446.897C749.569 458.937 736.263 458.748 728.452 453.896C707.07 398.908 721.176 393.758 728.243 381.718C735.311 369.678 747.373 363.851 755.184 368.703C762.996 373.555 763.705 434.857 756.637 446.897Z" fill="#B8CCCD"/>
<path d="M765.929 466.511C762.241 467.905 759.29 465.403 758.386 462.871C763.194 446.589 767.257 448.041 770.945 446.647C774.633 445.253 778.355 446.175 779.259 448.707C780.164 451.239 769.616 465.117 765.929 466.511Z" fill="#B8CCCD"/>
<path d="M746.485 1000.68C756.453 984.42 769.859 974.725 776.43 979.026C783 983.328 780.246 999.997 770.278 1016.26C760.31 1032.52 750.124 1054.64 743.554 1050.34C736.984 1046.03 736.518 1016.94 746.485 1000.68Z" fill="#B8CCCD"/>
<path d="M727.441 1028.02C721.493 1036.4 712.919 1037.68 711.24 1032.89C702.456 1020.83 711.148 1022.48 717.096 1014.1C723.044 1005.72 729.512 993.725 732.368 997.571C735.225 1001.42 733.389 1019.64 727.441 1028.02Z" fill="#B8CCCD"/>
<path d="M649.727 0H-17V1023.76H642.926L642.924 1024.2L684.52 1024.36C705.123 1024.44 721.335 1006.3 719.658 985.173C717.603 959.278 715.367 928.619 715.549 919.956C715.592 917.921 715.583 915.244 715.573 912.103C715.506 890.892 715.37 848.517 730.561 839.615C746.45 830.305 746.247 821.809 745.666 797.382C745.571 793.365 745.465 788.919 745.419 783.967C744.919 730.451 734.005 711.313 724.61 694.838C716 679.741 708.666 666.881 711.792 631.854C713.533 612.341 717.154 598.493 721.53 588.678C722.885 585.64 724.506 582.278 726.232 578.699C734.309 561.949 744.67 540.467 740.592 525.396C739.806 522.491 738.526 519.752 736.812 517.306L717.235 489.372C716.751 488.681 716.296 487.982 715.875 487.248C712.908 482.079 700.442 459.409 698.122 439.55C693.594 400.794 705.811 369.407 725.078 350.246C728.619 346.724 732.123 346.287 735.501 345.866C739.649 345.35 743.61 344.856 747.222 338.703C758.993 318.648 755.557 277.202 740.934 264.956C734.027 259.172 728.931 267.686 723.563 276.654C718.698 284.783 713.609 293.286 706.746 291.851C684.457 287.191 707.407 210.833 718.512 177.657C721.76 167.951 720.994 157.316 717.534 147.688C715.657 142.465 713.911 136.544 713.212 131.131C710.798 112.444 714.857 99.7658 719.792 84.35C720.821 81.1347 721.889 77.8003 722.944 74.2675C724.32 69.6575 726.272 64.3502 728.146 59.5799C731.629 50.716 732.048 40.8236 728.808 31.8628L725.83 23.6254C720.75 9.57686 707.739 0.237174 693.168 0.180573L649.727 0.0118266V0Z" fill="#B8CCCD"/>
<path d="M734.454 222.428C727.513 234.469 710.064 257.754 702.393 252.902C694.721 248.049 703.176 213.824 710.117 201.782C717.058 189.741 728.904 183.913 736.576 188.766C744.247 193.619 741.396 210.386 734.454 222.428Z" fill="#4F5A5E"/>
<path d="M742.775 446.949C735.834 458.99 722.766 458.801 715.095 453.948C694.096 398.954 707.949 393.803 714.89 381.762C721.831 369.72 733.677 363.893 741.348 368.745C749.02 373.598 749.716 434.907 742.775 446.949Z" fill="#4F5A5E"/>
<path d="M742.775 446.949C735.834 458.99 722.766 458.801 715.095 453.948C694.096 398.954 707.949 393.803 714.89 381.762C721.831 369.72 733.677 363.893 741.348 368.745C749.02 373.598 749.716 434.907 742.775 446.949Z" fill="#4F5A5E"/>
<path d="M751.9 466.564C748.278 467.958 745.38 465.457 744.492 462.925C749.214 446.64 753.204 448.092 756.826 446.698C760.448 445.304 764.104 446.227 764.992 448.759C765.88 451.291 755.522 465.17 751.9 466.564Z" fill="#4F5A5E"/>
<path d="M732.805 1000.8C742.594 984.533 755.76 974.837 762.213 979.139C768.665 983.441 765.96 1000.11 756.171 1016.37C746.382 1032.64 736.379 1054.76 729.926 1050.46C723.474 1046.15 723.016 1017.06 732.805 1000.8Z" fill="#4F5A5E"/>
<path d="M714.102 1028.14C708.26 1036.52 699.841 1037.8 698.191 1033.01C689.564 1020.94 698.101 1022.59 703.942 1014.21C709.784 1005.83 716.136 993.84 718.941 997.686C721.746 1001.53 719.943 1019.76 714.102 1028.14Z" fill="#4F5A5E"/>
<path d="M637.781 0H-17V1023.88H631.101L631.099 1024.32L671.95 1024.48C692.184 1024.56 708.105 1006.41 706.459 985.287C704.44 959.388 702.244 928.726 702.423 920.062C702.465 918.026 702.457 915.349 702.447 912.208C702.38 890.994 702.247 848.614 717.166 839.712C732.77 830.4 732.571 821.903 732.001 797.473C731.907 793.457 731.803 789.009 731.757 784.057C731.267 730.535 720.548 711.395 711.321 694.918C702.866 679.819 695.664 666.958 698.733 631.926C700.443 612.411 703.999 598.562 708.297 588.745C709.627 585.707 711.219 582.345 712.914 578.766C720.847 562.014 731.022 540.529 727.017 525.456C726.245 522.551 724.988 519.812 723.305 517.365L704.079 489.428C703.604 488.737 703.156 488.038 702.743 487.304C699.829 482.134 687.587 459.462 685.308 439.601C680.861 400.84 692.86 369.45 711.781 350.286C715.259 346.763 718.7 346.327 722.017 345.906C726.091 345.389 729.981 344.896 733.528 338.741C745.089 318.685 741.715 277.233 727.353 264.986C720.57 259.202 715.565 267.717 710.294 276.686C705.515 284.816 700.518 293.32 693.777 291.884C671.888 287.224 694.427 210.857 705.333 177.677C708.523 167.971 707.771 157.334 704.373 147.705C702.53 142.481 700.815 136.559 700.128 131.146C697.757 112.457 701.743 99.7773 706.59 84.3597C707.601 81.144 708.649 77.8093 709.685 74.276C711.037 69.6655 712.954 64.3576 714.795 59.5868C718.215 50.7218 718.626 40.8283 715.444 31.8665L712.519 23.6281C707.531 9.57796 694.753 0.237201 680.443 0.180594L637.781 0.011828V0Z" fill="#4F5A5E"/>
<path d="M667.663 199.37C659.3 211.417 638.276 234.714 629.033 229.859C619.79 225.004 629.977 190.762 638.34 178.715C646.703 166.667 660.976 160.837 670.219 165.692C679.462 170.547 676.027 187.323 667.663 199.37Z" fill="#B8CCCD"/>
<path d="M685.773 802.634C685.785 796.269 692.875 791.119 701.61 791.132C710.344 791.144 717.414 796.315 717.402 802.68C717.39 809.046 720.573 817.092 711.839 817.079C703.105 817.066 685.761 808.999 685.773 802.634Z" fill="#B8CCCD"/>
<path d="M694.557 818.629C693.78 822.056 689.142 824.381 684.197 823.822C679.252 823.263 675.873 820.032 676.649 816.605C677.426 813.177 676.597 808.643 681.542 809.202C686.487 809.761 695.334 815.202 694.557 818.629Z" fill="#B8CCCD"/>
<path d="M676.23 199.43C669.289 211.472 651.84 234.757 644.169 229.904C636.497 225.052 644.952 190.826 651.893 178.785C658.834 166.743 670.68 160.916 678.352 165.769C686.023 170.621 683.172 187.389 676.23 199.43Z" fill="#F5F5F5"/>
<path d="M691.261 802.406C691.271 796.044 697.156 790.896 704.405 790.909C711.654 790.922 717.522 796.09 717.512 802.452C717.501 808.815 720.144 816.857 712.895 816.844C705.646 816.832 691.25 808.769 691.261 802.406Z" fill="#F5F5F5"/>
<path d="M698.551 818.393C697.907 821.819 694.057 824.143 689.953 823.584C685.848 823.026 683.044 819.796 683.689 816.37C684.333 812.944 683.645 808.412 687.749 808.971C691.853 809.53 699.196 814.968 698.551 818.393Z" fill="#F5F5F5"/>
</svg>
