<svg width="56" height="56" viewBox="0 0 56 56" fill="none" xmlns="http://www.w3.org/2000/svg">
<path fill-rule="evenodd" clip-rule="evenodd" d="M0.0130061 28.853C0.484087 44.3098 13.3962 56.4581 28.853 55.987C44.3098 55.5159 56.4581 42.6038 55.987 27.147C55.5159 11.6902 42.6038 -0.458075 27.147 0.0130061C11.6902 0.484087 -0.458075 13.3962 0.0130061 28.853ZM7.00976 28.6397C7.36307 40.2323 17.0471 49.3436 28.6397 48.9903C40.2323 48.637 49.3436 38.9529 48.9903 27.3603C48.637 15.7677 38.9529 6.65645 27.3603 7.00976C15.7677 7.36307 6.65645 17.0471 7.00976 28.6397Z" fill="#4F5A5E"/>
<path d="M27.7039 10.2246C28.9227 9.96739 30.2432 10.2529 31.2714 11.1157L40.6859 19.0154C42.4616 20.5054 42.6932 23.1528 41.2032 24.9285C39.7132 26.7042 37.0658 26.9358 35.2901 25.4458L32.9998 23.524L32.9998 40.4848C32.9998 42.9701 30.9851 44.9848 28.4998 44.9848C26.0145 44.9848 23.9998 42.9701 23.9998 40.4848L23.9998 22.9087L20.8697 25.5351C19.094 27.0251 16.4467 26.7935 14.9567 25.0178C13.4667 23.242 13.6983 20.5947 15.474 19.1047L24.8884 11.205C25.7078 10.5175 26.7127 10.1965 27.7039 10.2246Z" fill="#4F5A5E"/>
</svg>
