<svg width="360" height="466" viewBox="0 0 360 466" fill="none" xmlns="http://www.w3.org/2000/svg">
<path d="M299.724 451.456C297.524 450.441 293.499 456.992 292.428 458.882C291.358 460.772 292.272 463.128 294.472 464.143C296.671 465.159 299.321 464.449 300.391 462.558C301.462 460.668 301.924 452.472 299.724 451.456Z" fill="#B8CCCD"/>
<path d="M304.478 388.359C304.492 379.937 308.111 362.351 317.44 362.366C326.77 362.382 336.782 382.681 336.768 391.103C336.754 399.526 329.179 406.341 319.849 406.325C310.52 406.31 304.464 396.782 304.478 388.359Z" fill="#B8CCCD"/>
<path d="M39.1986 357.576C39.2054 353.654 39.9206 353.694 43.3495 353.886C44.2518 353.937 45.3427 353.998 46.6574 354C47.7577 354.002 48.9425 353.962 50.1489 353.922L50.1515 353.922C55.8642 353.731 62.0603 353.523 62.0533 357.613C62.0449 362.567 56.9219 366.575 50.6107 366.565C44.2995 366.555 39.1902 362.53 39.1986 357.576Z" fill="#B8CCCD"/>
<path fill-rule="evenodd" clip-rule="evenodd" d="M360 320.6C360 320.6 354.768 324.104 351.768 329.103C348.768 334.103 356.177 349.532 353.898 360.32C351.619 371.109 336.279 371.024 334.12 360.211C333.966 359.442 333.725 358.693 333.4 357.979L325.327 340.263C321.688 332.278 310.05 333.491 308.116 342.057C306.293 350.134 295.607 351.85 291.375 344.745L285.983 335.696C278.809 323.656 260.392 329.377 261.219 343.39L266.83 438.458C267.049 442.181 266.188 445.887 264.351 449.127C253.926 467.515 225.924 457.957 228.784 436.987L236.969 376.975C237.306 374.499 237.345 371.991 237.082 369.506L235.505 354.55C231.861 320.001 185.476 311.891 170.446 343.176C167.524 349.257 166.44 356.066 167.327 362.761L172.548 402.156C174.65 418.013 157.633 429.317 143.956 421.148L141.078 419.429C136.764 416.853 134.227 412.082 134.491 407.043C135.306 391.491 113.684 387.03 108.341 401.648L99.0072 427.187C91.8301 446.825 62.6722 439.867 65.0366 419.08L66.5066 406.158L72.8136 357.878C75.4364 337.801 64.9891 330.286 50.2681 344.103C36.5023 357.024 16.2681 334.103 15.7681 321.603C15.2681 309.103 -0.231922 320.603 -0.231922 320.603L-0.22379 238.616L-0.217414 60.6261L-0.217458 60.6166C-0.217455 60.6146 -0.217421 60.6126 -0.217418 60.6105L-0.215241 -0.383403L360 -0.5L360 320.6ZM330.895 290.385C330.224 293.809 326.216 296.132 321.943 295.574C317.67 295.015 314.751 291.787 315.422 288.364C315.566 287.63 315.646 286.847 315.725 286.073C316.015 283.233 316.291 280.53 319.649 280.968C323.922 281.526 331.566 286.961 330.895 290.385ZM323.305 274.407C323.316 268.048 329.443 262.903 336.99 262.916C344.536 262.928 350.645 268.093 350.634 274.452C350.632 275.813 350.756 277.252 350.879 278.672C351.329 283.884 351.758 288.846 345.827 288.836C338.281 288.824 323.295 280.766 323.305 274.407Z" fill="#B8CCCD"/>
<path d="M297.375 438.938C295.232 437.921 291.31 444.481 290.268 446.374C289.225 448.268 290.116 450.626 292.258 451.643C294.401 452.66 296.983 451.949 298.026 450.056C299.069 448.163 299.518 439.955 297.375 438.938Z" fill="#4F5A5E"/>
<path d="M302.852 378.035C302.866 369.601 306.391 351.99 315.481 352.005C324.57 352.02 334.324 372.349 334.31 380.783C334.296 389.218 326.917 396.043 317.827 396.027C308.738 396.012 302.838 386.47 302.852 378.035Z" fill="#4F5A5E"/>
<path d="M40.5427 352.439C40.5492 348.512 41.2461 348.552 44.5866 348.744L44.5876 348.744C45.4666 348.795 46.5289 348.856 47.8093 348.858C48.8811 348.86 50.0353 348.82 51.2105 348.78L51.2136 348.78C56.7792 348.589 62.8154 348.381 62.8086 352.477C62.8003 357.438 57.8092 361.452 51.6607 361.441C45.5121 361.431 40.5344 357.401 40.5427 352.439Z" fill="#4F5A5E"/>
<path fill-rule="evenodd" clip-rule="evenodd" d="M360 316C360 316 352.867 323.391 350.129 326.999C344.406 334.541 354.553 340.519 352.333 351.324C350.112 362.128 335.167 362.043 333.064 351.214C332.914 350.443 332.679 349.693 332.362 348.979L324.497 331.237C320.953 323.241 309.615 324.456 307.73 333.034C305.954 341.123 295.544 342.841 291.42 335.726L286.167 326.664C279.178 314.606 261.235 320.336 262.041 334.368L267.507 429.573C267.721 433.301 266.882 437.013 265.093 440.257C254.936 458.671 227.655 449.1 230.441 428.1L238.415 368.002C238.744 365.522 238.781 363.011 238.526 360.522L236.989 345.545C233.439 310.946 188.249 302.825 173.606 334.154C170.76 340.244 169.703 347.063 170.568 353.767L175.654 393.219C177.702 409.098 161.123 420.418 147.799 412.238L144.994 410.517C140.792 407.937 138.32 403.159 138.578 398.113C139.371 382.539 118.306 378.071 113.101 392.71L104.008 418.286C97.0155 437.952 68.6088 430.983 70.9123 410.167L72.3443 397.226L78.4889 348.877C81.0442 328.771 70.5975 322.673 56.2557 336.51C42.8446 349.448 23.3331 343.473 23.4403 324.511C23.5474 305.548 -2.55629e-07 316 -2.55629e-07 316L-1.52623e-05 -0.383203L360 -0.396468L360 316ZM325.838 290.295C325.184 293.724 321.279 296.05 317.116 295.491C314.083 295.084 311.75 293.257 310.96 290.97C306.807 290.037 304.118 287.056 304.813 283.91C304.976 283.171 305.067 282.38 305.157 281.6C305.486 278.736 305.8 276.008 309.615 276.45C313.868 276.944 321.059 281.212 322.265 284.584C324.515 286.426 326.16 288.605 325.838 290.295ZM313.769 269.832C313.781 263.418 320.742 258.228 329.316 258.24C337.89 258.253 344.83 263.463 344.818 269.877C344.816 270.95 344.901 272.069 345.005 273.191C345.019 273.311 345.03 273.431 345.039 273.552C345.058 273.746 345.077 273.94 345.096 274.134C345.261 275.828 345.423 277.497 345.342 278.979C345.763 284.044 346.01 288.753 340.385 288.744C334.038 288.733 322.288 282.717 319.202 276.975C315.973 274.678 313.765 272.144 313.769 269.832Z" fill="#4F5A5E"/>
</svg>
