<svg width="223" height="132" viewBox="0 0 223 132" fill="none" xmlns="http://www.w3.org/2000/svg">
<path d="M101.335 110.081C143.766 108.189 153.348 99.4357 175.94 56.7993C179.551 45.84 196.706 35.6617 207 26.5C231.855 4.37878 240.791 -8.66334 96.8881 10.3703C11.2757 12.9991 -28.0909 32.5956 22.2826 63.6521C41.0738 73.299 50.5419 83.3617 58.3415 91.6512C69.1222 103.109 76.7154 111.179 101.335 110.081Z" fill="#B8CCCD"/>
<path d="M164.519 105.116C161.284 113.06 158.126 128.582 149.5 128.5C137.262 132.664 129.631 111.155 148.5 105.5C157.488 98.9338 162.673 93.9889 165.5 90C167.73 86.8531 168.573 86.1243 172.5 87.5C176.246 89.0252 167.753 97.1725 164.519 105.116Z" fill="#B8CCCD"/>
<path d="M131 129.5C127.225 131.523 122.497 130.051 120.44 126.213C118.384 122.375 119.777 117.624 123.553 115.601C124.361 115.168 125.18 114.646 125.989 114.13C128.958 112.239 131.785 110.438 133.401 113.455C135.457 117.293 134.775 127.477 131 129.5Z" fill="#B8CCCD"/>
<path d="M105.647 113.526C148.079 111.633 157.66 102.88 180.253 60.244C183.863 49.2847 196.033 38.4537 206.327 29.292C231.182 7.17074 245.103 -5.21866 101.201 13.815C15.5881 16.4438 -23.7784 36.0403 26.5951 67.0968C45.3863 76.7437 54.8543 86.8064 62.654 95.0959C73.4346 106.554 81.0278 114.624 105.647 113.526Z" fill="#F5F5F5"/>
<path d="M168.831 108.561C165.596 116.505 159.343 129.089 150.717 129.006C138.48 133.17 132.007 113.003 150.876 107.348C159.864 100.782 164.309 94.5092 167.135 90.5204C169.365 87.3735 170.588 85.6478 172.24 86.3204C175.985 87.8456 172.066 100.617 168.831 108.561Z" fill="#F5F5F5"/>
<path d="M132.418 130.971C128.643 132.994 123.915 131.523 121.858 127.684C119.802 123.846 121.195 119.095 124.971 117.072C125.779 116.639 126.598 116.117 127.407 115.601C130.376 113.71 133.203 111.909 134.819 114.926C136.875 118.764 136.194 128.948 132.418 130.971Z" fill="#F5F5F5"/>
<path fill-rule="evenodd" clip-rule="evenodd" d="M196.48 4.01713C196.48 4.01713 153.139 4.64143 153 6.81437C155.154 7.24272 166.782 10.2244 174.305 21.0209C186.525 36.7896 185 55.1241 185 51C190.872 45.3295 195.958 41.6351 199 36.8973C191.128 35.5752 186.895 34.8198 184.5 28C182.854 23.3144 186 16.5 186 16.5C186 16.5 191.44 3.49687 196.48 4.01713ZM178.279 4.83559C178.207 4.88219 178.135 4.92838 178.065 4.97419C171.733 9.073 170.087 10.1384 180.175 23.7315C180.376 24.002 180.578 24.27 180.782 24.5355C182.345 21.0875 183.731 16.566 182.873 10.3643C182.369 6.72247 179.922 6.27003 178.279 4.83559Z" fill="#B8CCCD"/>
<path fill-rule="evenodd" clip-rule="evenodd" d="M203.5 1C203.5 1 153.137 0.91169 153 3.00002C155.137 3.41169 169.036 10.3656 176.5 20.7418C188.624 35.8964 186.737 43.1774 188.5 49C194.038 47.8712 197.982 40.5532 201 36C193.19 34.7293 187.872 33.7052 185.495 27.1509C183.862 22.6478 186.881 14.9639 186.881 14.9639C186.881 14.9639 198.5 0.5 203.5 1ZM180.442 5.1866C180.371 5.23138 180.3 5.27577 180.23 5.3198C173.948 9.25902 172.315 10.2829 182.324 23.3468C182.523 23.6067 182.723 23.8643 182.926 24.1194C184.477 20.8057 185.851 16.4603 185 10.5C184.5 7 182.073 6.56518 180.442 5.1866Z" fill="#4F5A5E"/>
</svg>
