<svg xmlns="http://www.w3.org/2000/svg" fill="none" viewBox="48.04 60.38 279.24 266.59">
<path d="M78.6113 91.1518C85.816 86.0623 96.4892 83.5076 103.829 88.4006V88.4006C110.337 92.7395 119.109 91.1762 123.718 84.8559L128.799 77.8875C135.365 68.8823 147.331 65.7077 157.697 69.8023C167.312 73.6005 179.367 78.0087 189.896 80.7939C192.968 81.6064 196.175 81.6816 199.312 81.1783L243.071 74.1581C254.936 72.2545 264.89 83.1882 262.123 94.8822V94.8822C258.901 108.494 272.811 120.023 285.443 114.015V114.015C291.308 111.226 298.268 112.085 302.93 116.607C310.186 123.645 320.501 134.837 325.063 145.44C332.473 162.663 313.977 168.108 301.472 177.163C292.635 183.563 277.85 186.957 268.799 188.527C263.725 189.407 258.837 191.431 255.457 195.316C249.147 202.57 240.259 215.706 244.973 228.163C247.4 234.578 247.482 240.211 246.555 244.833C244.662 254.264 232.337 256.537 228.924 247.544C227.426 243.597 226.868 238.402 228.473 231.663C229.491 227.387 228.71 222.382 227.087 217.428C223.373 206.089 208.609 207.914 204.402 219.079V219.079C201.616 226.475 192.298 232.716 190.433 240.396C185.627 260.194 193.997 308.372 192.473 318.663C190.473 332.163 169.973 332.663 174.473 293.663C178.647 257.484 172.495 236.795 171.583 233.991C171.509 233.763 171.429 233.551 171.342 233.328L164.547 215.903C160.615 205.82 150.642 199.412 139.837 200.026L126.444 200.787C117.334 201.304 109.793 193.798 110.268 184.686V184.686C110.707 176.256 104.248 169.058 95.8202 168.585L79.1691 167.651C73.5374 167.335 68.142 165.157 64.3234 161.006C57.5139 153.603 47.5501 140.759 48.063 129.44C48.8584 111.884 59.9136 102.347 75.063 93.44C76.3406 92.6889 77.5216 91.9216 78.6113 91.1518Z" fill="#B8CCCD"/>
<path d="M79.1389 83.4887C86.3435 78.3992 97.0167 75.8445 104.356 80.7375V80.7375C110.865 85.0764 119.636 83.5131 124.245 77.1928L129.326 70.2245C135.893 61.2192 147.859 58.0446 158.224 62.1392C167.84 65.9374 179.894 70.3456 190.424 73.1308C193.495 73.9433 196.702 74.0185 199.84 73.5152L243.598 66.495C255.464 64.5914 265.418 75.5251 262.65 87.2191V87.2191C259.429 100.831 273.339 112.36 285.97 106.352V106.352C291.836 103.563 298.795 104.422 303.458 108.944C310.713 115.982 321.029 127.174 325.59 137.777C333 155 314.504 160.445 302 169.5C293.162 175.9 278.377 179.294 269.326 180.864C264.253 181.744 259.364 183.768 255.984 187.653C249.675 194.907 240.787 208.043 245.5 220.5C247.927 226.915 248.01 232.548 247.082 237.17C245.19 246.601 232.865 248.874 229.452 239.881C227.954 235.934 227.395 230.739 229 224C230.018 219.724 229.238 214.718 227.615 209.765C223.901 198.426 209.137 200.251 204.93 211.416V211.416C202.143 218.812 192.825 225.053 190.961 232.733C186.154 252.531 194.525 300.709 193 311C191 324.5 170.5 325 175 286C179.175 249.82 173.022 229.131 172.11 226.328C172.036 226.1 171.956 225.888 171.869 225.665L165.074 208.24C161.142 198.157 151.169 191.749 140.364 192.363L126.971 193.124C117.862 193.641 110.32 186.135 110.795 177.023V177.023C111.235 168.593 104.776 161.395 96.3477 160.922L79.6967 159.988C74.0649 159.672 68.6695 157.494 64.8509 153.343C58.0415 145.94 48.0776 133.096 48.5905 121.777C49.3859 104.221 60.4411 94.6836 75.5905 85.7769C76.8681 85.0258 78.0492 84.2585 79.1389 83.4887Z" fill="#4F5A5E"/>
</svg>