<svg width="360" height="460" viewBox="0 0 360 460" fill="none" xmlns="http://www.w3.org/2000/svg">
<path d="M294.31 446.332C292.123 445.315 288.119 451.875 287.055 453.768C285.99 455.661 286.9 458.02 289.087 459.037C291.275 460.054 293.91 459.343 294.975 457.45C296.039 455.557 296.498 447.349 294.31 446.332Z" fill="#4F5A5E"/>
<path d="M299.899 385.43C299.913 376.995 303.511 359.384 312.79 359.4C322.069 359.415 332.027 379.744 332.013 388.179C331.999 396.613 324.466 403.438 315.187 403.422C305.909 403.406 299.885 393.864 299.899 385.43Z" fill="#4F5A5E"/>
<path d="M32.1198 359.824C32.1263 355.896 32.8377 355.936 36.2479 356.129L36.2489 356.129C37.1462 356.18 38.2307 356.241 39.5377 356.243C40.6319 356.245 41.8102 356.205 43.0099 356.165L43.0131 356.165C48.6946 355.974 54.8567 355.767 54.8499 359.862C54.8417 364.824 49.7467 368.837 43.4699 368.826C37.1931 368.816 32.1115 364.785 32.1198 359.824Z" fill="#4F5A5E"/>
<path fill-rule="evenodd" clip-rule="evenodd" d="M360 321C359.998 322.088 362.026 316.519 360 321L352.47 351.72C350.204 362.524 334.947 362.438 332.8 351.609C332.647 350.839 332.407 350.089 332.084 349.375L324.054 331.632C320.435 323.636 308.861 324.851 306.938 333.428C305.124 341.517 294.497 343.235 290.287 336.12L284.925 327.058C277.79 315 259.473 320.729 260.296 334.761L265.879 429.966C266.098 433.694 265.242 437.406 263.415 440.65C253.047 459.064 225.197 449.492 228.04 428.492L236.178 368.394C236.514 365.915 236.552 363.403 236.291 360.914L234.722 345.937C231.097 311.338 184.964 303.215 170.017 334.544C167.111 340.634 166.033 347.452 166.916 354.156L172.11 393.608C174.201 409.488 157.277 420.808 143.675 412.627L140.812 410.905C136.521 408.325 133.998 403.548 134.26 398.502C135.07 382.927 113.566 378.459 108.253 393.097L98.9706 418.673C91.8333 438.339 62.8341 431.369 65.1849 410.553L66.6463 397.612L72.9172 349.264C75.5251 329.157 51.8238 316.807 37.1835 330.643C23.4932 343.582 -0.108681 335.463 -7.49647e-06 316.5L7.76231e-06 0.000366205L360 -5.93514e-09L360 321ZM325.421 290.69C324.753 294.119 320.767 296.445 316.518 295.886C313.422 295.478 311.04 293.652 310.233 291.364C305.994 290.432 303.248 287.45 303.957 284.305C304.124 283.565 304.217 282.775 304.308 281.995C304.645 279.13 304.965 276.402 308.86 276.845C313.201 277.338 320.543 281.607 321.773 284.979C324.07 286.822 325.75 289.001 325.421 290.69ZM313.1 270.227C313.112 263.813 320.218 258.623 328.97 258.636C337.723 258.649 344.808 263.859 344.796 270.273C344.794 271.345 344.881 272.465 344.988 273.587C345.001 273.707 345.013 273.827 345.022 273.948C345.041 274.142 345.061 274.336 345.08 274.53C345.248 276.224 345.414 277.893 345.331 279.375C345.762 284.44 346.014 289.149 340.272 289.14C333.792 289.129 321.797 283.112 318.646 277.37C315.35 275.073 313.095 272.539 313.1 270.227Z" fill="#4F5A5E"/>
</svg>
