<svg width="280" height="260" viewBox="0 0 280 260" fill="none" xmlns="http://www.w3.org/2000/svg">
<path d="M31.1389 23.4887C38.3435 18.3992 49.0167 15.8445 56.3562 20.7375V20.7375C62.8646 25.0764 71.6365 23.5131 76.2452 17.1928L81.3264 10.2245C87.8929 1.21924 99.8586 -1.95538 110.224 2.13916C119.84 5.93736 131.894 10.3456 142.424 13.1308C145.495 13.9433 148.702 14.0185 151.84 13.5152L195.598 6.49499C207.464 4.59145 217.418 15.5251 214.65 27.2191V27.2191C211.429 40.8309 225.339 52.3602 237.97 46.3524V46.3524C243.836 43.5627 250.795 44.4224 255.458 48.9444C262.713 55.9815 273.029 67.1737 277.59 77.7769C285 95 266.504 100.445 254 109.5C245.162 115.9 230.377 119.294 221.326 120.864C216.253 121.744 211.364 123.768 207.984 127.653C201.675 134.907 192.787 148.043 197.5 160.5C199.927 166.915 200.01 172.548 199.082 177.17C197.19 186.601 184.865 188.874 181.452 179.881C179.954 175.934 179.395 170.739 181 164C182.018 159.724 181.238 154.718 179.615 149.765C175.901 138.426 161.137 140.251 156.93 151.416V151.416C154.143 158.812 144.825 165.053 142.961 172.733C138.154 192.531 146.525 240.709 145 251C143 264.5 122.5 265 127 226C131.175 189.82 125.022 169.131 124.11 166.328C124.036 166.1 123.956 165.888 123.869 165.665L117.074 148.24C113.142 138.157 103.169 131.749 92.3644 132.363L78.971 133.124C69.8617 133.641 62.3203 126.135 62.7954 117.023V117.023C63.235 108.593 56.7757 101.395 48.3477 100.922L31.6967 99.9879C26.0649 99.672 20.6695 97.4943 16.8509 93.3428C10.0415 85.9398 0.0776346 73.0959 0.590494 61.7769C1.38594 44.2214 12.4411 34.6836 27.5905 25.7769C28.8681 25.0258 30.0492 24.2585 31.1389 23.4887Z" fill="#4F5A5E"/>
</svg>
