<svg width="219" height="132" viewBox="0 0 219 132" fill="none" xmlns="http://www.w3.org/2000/svg">
<path d="M101.647 113.526C144.079 111.633 153.66 102.88 176.253 60.244C179.863 49.2846 192.033 38.4537 202.327 29.292C227.182 7.17072 241.103 -5.21867 97.2005 13.815C11.5881 16.4438 -27.7784 36.0403 22.5951 67.0968C41.3863 76.7437 50.8543 86.8064 58.654 95.0959C69.4346 106.554 77.0278 114.624 101.647 113.526Z" fill="#F5F5F5"/>
<path d="M164.831 108.561C161.596 116.505 155.343 129.089 146.717 129.006C134.48 133.17 128.007 113.003 146.876 107.348C155.864 100.782 160.309 94.5092 163.135 90.5203C165.365 87.3734 166.588 85.6478 168.24 86.3204C171.985 87.8456 168.066 100.617 164.831 108.561Z" fill="#F5F5F5"/>
<path d="M128.418 130.971C124.643 132.994 119.915 131.522 117.858 127.684C115.802 123.846 117.195 119.095 120.971 117.072C121.779 116.639 122.598 116.117 123.407 115.601C126.376 113.71 129.203 111.909 130.819 114.926C132.875 118.764 132.194 128.948 128.418 130.971Z" fill="#F5F5F5"/>
<path fill-rule="evenodd" clip-rule="evenodd" d="M192.48 4.0171C192.48 4.0171 149.139 4.64141 149 6.81435C151.154 7.24269 162.782 10.2244 170.305 21.0209C182.525 36.7896 181 55.124 181 51C186.872 45.3294 191.958 41.635 195 36.8973C187.128 35.5751 182.895 34.8198 180.5 28C178.854 23.3144 182 16.5 182 16.5C182 16.5 187.44 3.49685 192.48 4.0171ZM174.279 4.83557C174.207 4.88216 174.135 4.92836 174.065 4.97417C167.733 9.07298 166.087 10.1383 176.175 23.7315C176.376 24.002 176.578 24.27 176.782 24.5354C178.345 21.0875 179.731 16.566 178.873 10.3642C178.369 6.72244 175.922 6.27 174.279 4.83557Z" fill="#B8CCCD"/>
<path fill-rule="evenodd" clip-rule="evenodd" d="M199.5 0.999976C199.5 0.999976 149.137 0.911665 149 3C151.137 3.41166 165.036 10.3656 172.5 20.7417C184.624 35.8964 182.737 43.1773 184.5 49C190.038 47.8712 193.982 40.5532 197 36C189.19 34.7293 183.872 33.7052 181.495 27.1509C179.862 22.6478 182.881 14.9639 182.881 14.9639C182.881 14.9639 194.5 0.499976 199.5 0.999976ZM176.442 5.18657C176.371 5.23135 176.3 5.27575 176.23 5.31978C169.948 9.25899 168.315 10.2829 178.324 23.3468C178.523 23.6067 178.723 23.8643 178.926 24.1194C180.477 20.8057 181.851 16.4603 181 10.5C180.5 6.99998 178.073 6.56516 176.442 5.18657Z" fill="#4F5A5E"/>
</svg>
