<svg width="279" height="259" viewBox="0 0 279 259" fill="none" xmlns="http://www.w3.org/2000/svg">
<path d="M30.6113 23.1518C37.816 18.0623 48.4892 15.5076 55.8287 20.4006V20.4006C62.3371 24.7395 71.109 23.1762 75.7176 16.8559L80.7989 9.88755C87.3654 0.882328 99.3311 -2.2923 109.697 1.80225C119.312 5.60045 131.367 10.0087 141.896 12.7939C144.968 13.6064 148.175 13.6816 151.312 13.1783L195.071 6.15808C206.936 4.25453 216.89 15.1882 214.123 26.8822V26.8822C210.901 40.4939 224.811 52.0233 237.443 46.0155V46.0155C243.308 43.2258 250.268 44.0855 254.93 48.6075C262.186 55.6446 272.501 66.8368 277.063 77.44C284.473 94.6631 265.977 100.108 253.472 109.163C244.635 115.563 229.85 118.957 220.799 120.527C215.725 121.407 210.837 123.431 207.457 127.316C201.147 134.57 192.259 147.706 196.973 160.163C199.4 166.578 199.482 172.211 198.555 176.833C196.662 186.264 184.337 188.537 180.924 179.544C179.426 175.597 178.868 170.402 180.473 163.663C181.491 159.387 180.71 154.382 179.087 149.428C175.373 138.089 160.609 139.914 156.402 151.079V151.079C153.616 158.475 144.298 164.716 142.433 172.396C137.627 192.194 145.997 240.372 144.473 250.663C142.473 264.163 121.973 264.663 126.473 225.663C130.647 189.484 124.495 168.795 123.583 165.991C123.509 165.763 123.429 165.551 123.342 165.328L116.547 147.903C112.615 137.82 102.642 131.412 91.8369 132.026L78.4435 132.787C69.3342 133.304 61.7928 125.798 62.2679 116.686V116.686C62.7075 108.256 56.2482 101.058 47.8202 100.585L31.1691 99.651C25.5374 99.335 20.142 97.1574 16.3234 93.0059C9.51395 85.6029 -0.449877 72.7589 0.0629823 61.44C0.858426 43.8844 11.9136 34.3467 27.063 25.44C28.3406 24.6889 29.5216 23.9216 30.6113 23.1518Z" fill="#B8CCCD"/>
</svg>
