<svg width="222" height="130" viewBox="0 0 222 130" fill="none" xmlns="http://www.w3.org/2000/svg">
<path d="M101.335 109.081C143.766 107.189 153.348 98.4357 175.94 55.7993C179.551 44.84 196.706 34.6617 207 25.5C231.855 3.37878 240.791 -9.66334 96.8881 9.37033C11.2757 11.9991 -28.0909 31.5956 22.2826 62.6521C41.0738 72.299 50.5419 82.3617 58.3415 90.6512C69.1222 102.109 76.7154 110.179 101.335 109.081Z" fill="#B8CCCD"/>
<path d="M164.519 104.116C161.284 112.06 158.126 127.582 149.5 127.5C137.262 131.664 129.631 110.155 148.5 104.5C157.488 97.9338 162.673 92.9889 165.5 89C167.73 85.8531 168.573 85.1243 172.5 86.5C176.246 88.0252 167.753 96.1725 164.519 104.116Z" fill="#B8CCCD"/>
<path d="M131 128.5C127.225 130.523 122.497 129.051 120.44 125.213C118.384 121.375 119.777 116.624 123.553 114.601C124.361 114.168 125.18 113.646 125.989 113.13C128.958 111.239 131.785 109.438 133.401 112.455C135.457 116.293 134.775 126.477 131 128.5Z" fill="#B8CCCD"/>
</svg>
