<svg width="360" height="465" viewBox="0 0 360 465" fill="none" xmlns="http://www.w3.org/2000/svg">
<path d="M300.393 451.851C298.19 450.835 294.159 457.386 293.087 459.276C292.015 461.166 292.931 463.522 295.134 464.537C297.337 465.553 299.99 464.843 301.062 462.953C302.134 461.062 302.596 452.866 300.393 451.851Z" fill="#B8CCCD"/>
<path d="M306.021 391.035C306.035 382.613 309.658 365.027 319.001 365.043C328.344 365.059 338.372 385.359 338.358 393.781C338.344 402.203 330.758 409.018 321.415 409.002C312.072 408.986 306.007 399.458 306.021 391.035Z" fill="#B8CCCD"/>
<path d="M36.3815 365.466C36.3881 361.544 37.1044 361.585 40.5382 361.777C41.4419 361.827 42.5344 361.889 43.851 361.891C44.9529 361.893 46.1394 361.853 47.3476 361.813L47.3501 361.813C53.0712 361.622 59.2764 361.415 59.2695 365.505C59.2612 370.459 54.1309 374.467 47.8105 374.456C41.4901 374.445 36.3732 370.421 36.3815 365.466Z" fill="#B8CCCD"/>
<path fill-rule="evenodd" clip-rule="evenodd" d="M360.525 331.283C360.524 332.369 360.409 333.453 360.185 334.516L354.643 360.717C352.361 371.505 336.998 371.42 334.836 360.607C334.682 359.837 334.44 359.088 334.115 358.375L326.029 340.658C322.385 332.673 310.731 333.886 308.794 342.452C306.968 350.529 296.267 352.244 292.028 345.139L286.628 336.09C279.444 324.049 260.999 329.77 261.828 343.782L267.45 438.851C267.671 442.574 266.808 446.281 264.969 449.52C254.529 467.907 226.486 458.349 229.349 437.379L237.544 377.367C237.882 374.891 237.92 372.383 237.657 369.898L236.077 354.942C232.427 320.393 185.973 312.281 170.923 343.565C167.997 349.646 166.911 356.456 167.8 363.15L173.03 402.545C175.135 418.403 158.094 429.706 144.397 421.537L141.514 419.818C137.194 417.241 134.653 412.471 134.918 407.432C135.733 391.88 114.079 387.417 108.729 402.035L99.3826 427.574C92.1958 447.212 62.995 440.252 65.3621 419.466L66.8338 406.543L73.1483 358.264C75.7742 338.187 51.9083 325.854 37.1663 339.671C23.3809 352.59 0.89203 342.699 1.00147 323.763L0.678432 239L5.57574e-05 239L6.05365e-05 61.0094L1.52598e-05 61C1.86877e-05 60.9979 5.25821e-05 60.9959 5.601e-05 60.9939L4.94332e-05 -3.05176e-05L360 -2.76759e-05L360 46.4156C360 46.4501 360 46.4846 360 46.5191L360.525 331.283ZM331.604 290.78C330.932 294.204 326.918 296.527 322.639 295.969C318.36 295.41 315.436 292.182 316.108 288.758C316.252 288.025 316.332 287.241 316.412 286.468C316.702 283.628 316.979 280.925 320.341 281.363C324.62 281.922 332.276 287.357 331.604 290.78ZM324.003 274.802C324.013 268.443 330.149 263.299 337.707 263.311C345.264 263.324 351.382 268.489 351.372 274.848C351.369 276.21 351.494 277.648 351.617 279.068C352.068 284.28 352.497 289.242 346.558 289.232C339 289.219 323.992 281.161 324.003 274.802Z" fill="#B8CCCD"/>
</svg>
