<svg width="360" height="170" viewBox="0 0 360 170" fill="none" xmlns="http://www.w3.org/2000/svg">
<path d="M0 61.7014C0 75.9029 13.5678 86.1732 27.236 82.3181C34.5269 80.2616 42.3619 82.209 47.8416 87.4397L61 100C71.8549 110.02 89.4941 103.54 91.2817 88.8764L92.2702 80.7672C92.7482 76.8465 92.135 72.8892 91.0919 69.0798C87.8937 57.3988 84.6616 31.3897 117 26C159 19 113.732 71.2906 144 92C147.051 94.0872 149.482 94.4731 151.416 93.6501C158.744 90.5305 172.308 84.7031 175.5 92C181.078 104.751 200.38 103.18 204.698 89.9486C210.95 70.7908 218.819 51.915 226 50C238.157 46.7581 254.576 55.8522 251.929 68.1525C249.364 80.0749 263.292 88.7543 272.62 80.8989L279.728 74.9137C281.23 73.6487 282.952 72.6717 284.809 72.0315L285.569 71.7692C298.315 67.3742 311.942 76.3969 314.461 89.6418C317.493 105.591 323.048 125.062 333.043 137.219C344.284 150.891 360 135.473 360 117.775V0H0V61.7014Z" fill="#4F5A5E"/>
<path d="M356.783 146.846C356.361 148.669 355.4 151.438 352.088 151.692C349.638 151.124 348.016 146.124 348.438 144.301C348.861 142.478 351.189 141.46 353.638 142.027C356.088 142.594 357.205 145.023 356.783 146.846Z" fill="#4F5A5E"/>
<path d="M351.014 167.424C348.849 169.78 346.176 170.028 342.986 167.097C339.795 164.167 338.963 159.881 341.128 157.525C343.292 155.169 344.858 151.118 348.048 154.049C351.239 156.98 353.178 165.067 351.014 167.424Z" fill="#4F5A5E"/>
<path d="M158.551 125.395C158.364 131.152 154.676 135.368 150.313 134.811C145.95 134.255 142.565 129.137 142.752 123.381C142.938 117.624 144.903 98.0237 149.266 98.5799C153.973 96.8772 158.738 119.638 158.551 125.395Z" fill="#4F5A5E"/>
</svg>
