<svg width="360" height="745" viewBox="0 0 360 745" fill="none" xmlns="http://www.w3.org/2000/svg">
<path d="M361 0H0V731.186C0 728.871 0.512718 726.584 1.50152 724.49L6.52127 713.857C10.2718 705.912 21.634 705.996 25.2655 713.996C25.7986 715.17 26.548 716.234 27.4748 717.132L36.7375 726.11C41.3913 730.621 49.098 729.328 52.0164 723.548C54.7003 718.232 61.5441 716.616 66.333 720.169L72.3681 724.645C83.6918 733.045 99.566 723.696 97.6571 709.751L94.6279 687.624C93.7794 681.425 96.2843 675.242 101.212 671.371C114.814 660.685 134.123 673.822 129.107 690.35L125.078 703.625C123.941 707.372 123.826 711.353 124.746 715.159L125.403 717.876C131.208 741.901 160.813 750.794 178.959 733.964L187.666 725.889C192.486 721.418 194.328 714.573 192.426 708.288C188.538 695.443 200.258 683.245 213.264 686.679L218.957 688.181C223.938 689.496 227.198 694.256 226.615 699.361C225.442 709.625 238.413 715.082 244.968 707.083L267.093 680.083C278.234 666.487 300.119 677.461 295.819 694.487C290.245 713.675 309.521 730.869 327.914 722.953C343.557 716.221 361 727.66 361 744.65V0Z" fill="#4F5A5E"/>
<path d="M260.722 719.122C260.722 721.997 259.051 728 254.706 728C250.36 728 245.681 721.078 245.681 718.204C245.681 715.33 249.203 713 253.549 713C257.894 713 260.722 716.248 260.722 719.122Z" fill="#4F5A5E"/>
<path d="M141 351.122C141 353.997 139.333 360 135 360C130.667 360 126 353.078 126 350.204C126 347.33 129.513 345 133.846 345C138.179 345 141 348.248 141 351.122Z" fill="#B8CCCD"/>
<path d="M360 0H0V317.253H0.104893L0 338.5C0.112707 338.307 0.564779 337.724 0.975458 337.268C4.52612 333.325 9 333.5 14.1139 333.808C19.2279 334.117 19 336 20.7476 338.081C22.4953 340.161 32.3823 345.226 40 343.5C47.1719 341.875 55.7146 336.732 54.5413 331.537C53.8522 328.485 54.6596 320.379 58.4536 318.572C62.2475 316.765 72.2405 314.839 78.5219 317.253C91.6412 322.295 94.1849 331.453 91.0925 350.976C88 370.5 86.4325 381.989 94.4662 380.995C102.5 380 109 366.5 102.901 352.459C102.901 352.459 97.5 342 97.5 337.5C97.5 333 97.2777 330.593 108.524 329.111C114.628 328.306 114.872 320.023 121 319.5C128.8 318.835 128.283 333.991 136.662 332.013C143.213 330.465 144.083 323.733 150.52 321.761C163.775 317.702 172.087 329.987 186 335C201.558 340.606 215.031 308.203 226.016 348.851C237 389.5 275.778 371.73 288.017 350.824C290.402 346.752 293.205 342.041 292.248 339.506C291.29 336.971 299.263 330.493 304.999 331.643C308.34 332.313 308.981 335.411 312.169 336.614C320.201 339.643 324.594 330.042 333.178 330.149C340.349 330.239 345.028 330.907 350.871 335.065C356.37 338.977 352.654 349.374 360 350V0Z" fill="#B8CCCD"/>
</svg>
