<svg width="360" height="745" viewBox="0 0 360 745" fill="none" xmlns="http://www.w3.org/2000/svg">
<path d="M360 0H0V731.186C0 728.871 0.511298 726.584 1.49736 724.49L6.5032 713.857C10.2433 705.912 21.5741 705.996 25.1955 713.996C25.7271 715.17 26.4745 716.234 27.3987 717.132L36.6357 726.11C41.2766 730.621 48.962 729.328 51.8723 723.548C54.5488 718.232 61.3736 716.616 66.1493 720.169L72.1676 724.645C83.46 733.045 99.2902 723.696 97.3866 709.751L94.3658 687.624C93.5196 681.425 96.0176 675.242 100.932 671.371C114.496 660.685 133.751 673.822 128.749 690.35L124.732 703.625C123.598 707.372 123.483 711.353 124.401 715.159L125.055 717.876C130.844 741.901 160.367 750.794 178.463 733.964L187.146 725.889C191.953 721.418 193.79 714.573 191.893 708.288C188.016 695.443 199.703 683.245 212.673 686.679L218.351 688.181C223.318 689.496 226.569 694.256 225.987 699.361C224.818 709.625 237.752 715.082 244.289 707.083L266.353 680.083C277.463 666.487 299.287 677.461 295 694.487C289.441 713.675 308.664 730.869 327.005 722.953C342.605 716.221 360 727.66 360 744.65V0Z" fill="#4F5A5E"/>
<path d="M260 719.122C260 721.997 258.333 728 254 728C249.667 728 245 721.078 245 718.204C245 715.33 248.513 713 252.846 713C257.179 713 260 716.248 260 719.122Z" fill="#4F5A5E"/>
</svg>
