<svg width="360" height="514" viewBox="0 0 360 514" fill="none" xmlns="http://www.w3.org/2000/svg">
<path d="M360 0H0V428H0.104893L0.59032 455.767C0.703027 455.507 0.831511 455.251 0.975458 455.002L3.71179 450.262C5.89634 446.478 11.9965 446.52 14.1139 450.335C14.445 450.931 14.9023 451.465 15.4607 451.908L20.7476 456.098C23.3626 458.171 27.4662 457.543 29.1519 454.813C30.7003 452.305 34.3428 451.529 37.001 453.142L40.3557 455.177C46.9387 459.17 55.7146 454.279 54.5413 447.27L53.3994 440.448C52.7102 436.332 54.6596 432.217 58.4536 429.78L60.3337 428.572C60.6485 428.37 60.9675 428.179 61.2901 428H78.5219C82.2786 430.06 85.1432 433.478 86.0019 437.85C86.0019 437.85 92.3183 459.506 91.0925 473.496C90.0168 485.771 82.0957 503.993 82.0957 503.993C82.11 504.087 82.1243 504.182 82.1387 504.276C82.8252 508.8 83.5752 513.742 94.4662 513.993C121.276 514.609 102.901 475.495 102.901 475.495C102.932 474.488 99.319 458.954 98.9646 457.997C98.9646 457.997 97.2777 445.997 108.524 443.998C114.628 442.912 115.188 440.741 115.576 439.231C115.904 437.96 116.11 437.158 119.406 437.87L122.785 438.599C125.53 439.192 127.339 441.52 126.991 444.013C126.319 448.827 133.033 451.534 136.662 447.912L150.52 434.082C156.812 427.803 168.331 433.37 165.827 441.48C162.651 450.419 172.503 458.661 182.344 455.298L184.437 454.583C193.443 451.506 203.103 457.471 203.006 466.049L202.98 468.407L205.308 470.846C207.864 473.525 212.703 472.853 214.218 469.608C215.617 466.612 219.929 465.748 222.638 467.921L226.016 470.629C231.825 475.287 241.029 471.083 240.154 464.171L237.89 446.291C237.532 443.466 238.679 440.655 240.991 438.692C248.408 432.393 260.476 438.629 257.992 447.477L254.939 458.351C254.443 460.118 254.393 461.961 254.792 463.747L255.155 465.372C258.218 479.074 277.593 483.742 288.017 473.291L290.457 470.845C293.087 468.208 294.086 464.588 293.129 461.168L292.248 458.021C290.356 451.264 297.543 445.286 304.999 447.414L307.781 448.207C310.623 449.018 312.448 451.477 312.169 454.119C311.552 459.95 320.09 462.664 323.771 457.808L333.178 445.398C339.175 437.487 353.053 442.688 350.871 452.029L349.704 456.372C347.731 463.713 353.654 470.074 361 470.919L360 427.574V0Z" fill="#B8CCCD"/>
<path d="M323.431 488.69C320.548 493.676 315.305 495.65 311.722 493.099C308.139 490.548 307.572 484.438 310.456 479.452C313.339 474.466 315.67 467.233 319.253 469.784C322.836 472.334 326.315 483.704 323.431 488.69Z" fill="#B8CCCD"/>
</svg>
