<svg width="56" height="56" viewBox="0 0 56 56" fill="none" xmlns="http://www.w3.org/2000/svg">
<path fill-rule="evenodd" clip-rule="evenodd" d="M55.9964 27.5504C55.7481 12.0884 43.0124 -0.244703 27.5504 0.0035927C12.0885 0.251889 -0.244673 12.9876 0.00362321 28.4496C0.251919 43.9115 12.9876 56.2447 28.4496 55.9964C43.9116 55.7481 56.2447 43.0124 55.9964 27.5504ZM48.9973 27.6628C48.8111 16.0663 39.2593 6.81647 27.6628 7.00269C16.0663 7.18891 6.8165 16.7407 7.00272 28.3372C7.18894 39.9337 16.7407 49.1835 28.3372 48.9973C39.9337 48.8111 49.1835 39.2593 48.9973 27.6628Z" fill="#B8CCCD"/>
<path d="M29.0438 41.8916C27.413 43.8211 24.4522 43.8613 22.7696 41.9768L14.4173 32.6221C13.0381 31.0774 13.0065 28.7531 14.3433 27.1715C15.9741 25.242 18.9349 25.2018 20.6174 27.0863L28.9698 36.4409C30.349 37.9856 30.3806 40.31 29.0438 41.8916Z" fill="#B8CCCD"/>
<path d="M23.4317 41.0511C22.7344 39.7766 22.8322 38.2148 23.683 37.0373L37.6226 17.7454C39.244 15.5013 42.6512 15.7147 43.98 18.1435C44.6773 19.418 44.5794 20.9798 43.7286 22.1573L29.7891 41.4492C28.1676 43.6933 24.7605 43.4799 23.4317 41.0511Z" fill="#B8CCCD"/>
</svg>
